<?xml version="1.0" encoding="UTF-8"?>
<svg id="Layer_1" data-name="Layer 1" xmlns="http://www.w3.org/2000/svg" version="1.1" viewBox="0 0 31.9 32">
  <defs>
    <style>
      .cls-1 {
        fill: #f7acbb;
      }

      .cls-1, .cls-2 {
        stroke-width: 0px;
      }

      .cls-2 {
        fill: #fff;
      }
    </style>
  </defs>
  <rect class="cls-1" y="1" width="32" height="30" rx="3.4" ry="3.4"/>
  <g>
    <path class="cls-2" d="M16,10.5c1.4,0,2.5-1.1,2.5-2.5s-1.1-2.6-2.5-2.6-2.6,1.1-2.6,2.5,1.1,2.6,2.6,2.6ZM16,6.1c1,0,1.7.8,1.7,1.7s-.8,1.7-1.7,1.7-1.7-.8-1.7-1.7.8-1.7,1.7-1.7Z"/>
    <path class="cls-2" d="M29.5,17c-1.2-2.8-7.2-1.2-7.9-1l-.3.3.3.6c1.8-.5,6.2-1.3,7,.3,0,0-.3.8-2.9,1.4,0,0-1.4.5-1.9,2.6,0,0-1,3.2-3.4,4.2-.9.3-1.9.3-2.9,0l.4-.3c2.9-1.7,2.8-5,2.8-5.1v-4.3c-.2-1.5.3-2.3.3-2.4.7-1.6.8-2.6.3-3-.6-.6-1.6-.2-1.6,0-1.5.7-2.9,2-3.8,3-1.2-1.4-2.5-2.4-3.8-3,0,0-1.1-.5-1.6,0s-.4,1.5.3,3.1c0,0,.3,1,.3,2.4v4.3c0,.2,0,3.5,2.8,5.1l.3.3c-1.1.4-2.1.4-3,0-2.3-1-3.4-4.2-3.4-4.2-.6-2.1-1.8-2.5-1.9-2.6-2.5-.6-2.9-1.3-2.9-1.4.9-1.6,5.2-.9,7-.3l.3-.6-.3-.3c-.7-.2-6.7-1.7-7.9,1l.2.8c.4.7,1.6,1.3,3.3,1.7,0,0,1,.3,1.4,2,0,.2,1.2,3.6,3.9,4.8.5.3,1.1.3,1.7.3s1.6-.2,2.5-.6l.6.3h.4c.3,0,.5,0,.7-.2l.3-.2c1,.4,1.7.6,2.4.6s1.2,0,1.7-.3c2.7-1.1,3.8-4.6,3.9-4.8.4-1.6,1.3-2,1.4-2,1.7-.4,2.9-1,3.3-1.7l.2-.7-.4-.2h0ZM15.9,25.5h-.3l-1.6-1c-2.4-1.5-2.3-4.3-2.3-4.4v-4.2c.2-1.6-.3-2.8-.3-2.8-.8-1.7-.4-2.1-.3-2.2h.7c1.2.7,2.4,1.6,3.6,3.1-.7.9-1.1,1.6-1.3,1.8l.4.5.4-.3s2.3-3.6,5.4-5.1h.4s.3.3-.4,2.2c0,0-.4,1.1-.3,2.8v4.3s0,2.9-2.3,4.3l-1.6,1h-.2Z"/>
  </g>
</svg>