<?xml version="1.0" encoding="UTF-8"?>
<svg id="Layer_1" data-name="Layer 1" xmlns="http://www.w3.org/2000/svg" version="1.1" viewBox="0 0 1200 1200">
  <defs>
    <style>
      .cls-1 {
        fill: #c49a6c;
      }

      .cls-1, .cls-2 {
        stroke-width: 0px;
      }

      .cls-3 {
        fill: none;
        stroke: #9d845e;
        stroke-linecap: round;
        stroke-linejoin: round;
        stroke-width: 44px;
      }

      .cls-2 {
        fill: #f7acbc;
      }
    </style>
  </defs>
  <g id="Graphic_Elements" data-name="Graphic Elements">
    <polyline class="cls-3" points="348.6 753.6 281.7 801 281.7 895.6 1065.8 895.6"/>
    <polyline class="cls-3" points="241.4 354.6 200.4 201.5 34.1 96.5"/>
    <g>
      <path class="cls-1" d="M372.7,426.9h771.3c14.8,0,25.3,14.2,21,28.4l-97.2,362.2c-2.8,9.3-11.4,15.6-21,15.6H446.5c-10.2,0-19.1-7.1-21.4-17.1l-73.8-362.2c-3.2-13.8,7.3-26.9,21.4-26.9Z"/>
      <circle class="cls-2" cx="496" cy="1044.1" r="91.2" transform="translate(-593 656.5) rotate(-45)"/>
      <circle class="cls-2" cx="989.4" cy="1044.1" r="91.2" transform="translate(-448.5 1005.4) rotate(-45)"/>
    </g>
  </g>
  <polygon class="cls-3" points="1096.7 354.6 989.5 755.5 987.4 755.5 348.6 755.5 241.4 354.6 1096.7 354.6"/>
  <path class="cls-2" d="M965.8,133.8l-469.7-68.8c-12-1.8-23.2,6.6-24.9,18.6l-72.2,492.7c-1.8,12,6.6,23.2,18.6,24.9l469.7,68.8c12,1.8,23.2-6.6,24.9-18.6l72.2-492.7c1.8-12-6.6-23.2-18.6-24.9Z"/>
  <circle class="cls-3" cx="423.3" cy="1031.7" r="72.7"/>
  <circle class="cls-3" cx="912.3" cy="1031.7" r="72.7"/>
</svg>