<?xml version="1.0" encoding="UTF-8"?>
<svg id="Layer_1" data-name="Layer 1" xmlns="http://www.w3.org/2000/svg" version="1.1" viewBox="0 0 1366 648">
  <defs>
    <style>
      .cls-1 {
        font-family: Arial-BoldMT, Arial;
        font-size: 35.5px;
        font-weight: 700;
        letter-spacing: .3em;
      }

      .cls-1, .cls-2 {
        fill: #9d845e;
      }

      .cls-1, .cls-2, .cls-3 {
        isolation: isolate;
      }

      .cls-2 {
        font-family: Sarcolenta-Regular, Sarcolenta;
        font-size: 195.4px;
      }

      .cls-4 {
        fill: #f7acbb;
      }

      .cls-4, .cls-5 {
        stroke-width: 0px;
      }

      .cls-5 {
        fill: #c49a6c;
      }
    </style>
  </defs>
  <g class="cls-3">
    <text class="cls-2" transform="translate(20.2 451) scale(1.2 1)"><tspan x="0" y="0">Magic Natural</tspan></text>
  </g>
  <g>
    <path class="cls-4" d="M685.8,105.8h0c13.4,0,24.4-10.9,24.4-24.4s-11-24.5-24.4-24.5-24.5,10.9-24.5,24.4,11,24.5,24.5,24.5ZM685.8,64.4c9.3,0,16.9,7.6,16.9,16.9s-7.6,16.9-16.9,16.9-16.9-7.6-16.9-16.9,7.6-16.9,16.9-16.9Z"/>
    <path class="cls-4" d="M815.4,168.7c-11.7-26.4-68.7-11.3-75.2-9.5l-3.5,2.9,3.5,5.7c17.7-5,59.2-12.6,67.3,3.4-.3.8-3,7.6-27.3,13.4-.9.3-13.1,4.9-18.6,24.7,0,0-10.1,30.6-32.3,40-8.5,3.7-17.9,3.6-27.9,0l3.8-2.4c27-16.2,26.3-47.9,26.3-49v-41.7c-1.3-13.8,2.3-22.7,2.4-22.8,6.5-15.3,7.1-24.6,2.2-29.4-5.6-5.4-14.9-1.2-16-.8-14.5,6.9-27,18.8-36.3,29.4-11.7-13.7-23.7-23.3-36.3-29.4-1-.5-10.4-4.7-16.1.8-5,4.8-4.3,14.2,2.2,29.5,0,0,3.7,8.8,2.4,23.2v41.2c0,1.3-.8,33,26.2,49.1l3.4,2.1c-10.4,3.9-20.1,4.1-28.8.4-22.2-9.4-32.3-39.9-32.3-40-5.4-19.8-17.7-24.3-18.6-24.7-24.3-5.8-26.9-12.7-27.3-13.4,8.2-16,49.7-8.4,67.3-3.4l3.5-5.7-3.5-2.9c-6.5-1.8-63.5-16.9-75.2,9.5l-.4,1.2,1.7,6.4c4,6.8,14.8,12.3,31.5,16.3.3.2,8.8,3.7,13.1,19.2.4,1.4,11.3,34.5,37,45.4,5.4,2.3,10.9,3.4,16.7,3.4h0c7.1,0,14.6-1.9,23.9-6.1l5.5,3.4,3.8.4h0c2.5,0,4.8-.8,6.2-1.6l3-1.9c8.9,4,16.2,5.6,23.1,5.6h0c5.7,0,11.4-1.1,16.7-3.4,25.6-10.9,36.5-43.9,37-45.4,4.3-15.5,12.8-19,13.1-19.2,16.6-4,27.4-9.6,31.5-16.3l1.7-6.4-.4-1.2h-.2ZM682.2,249.6l-15.6-9.7c-22.8-13.7-22.3-41.5-22.3-42v-40.9c1.5-16.1-2.9-26.4-3.1-26.9-7.1-16.9-4.1-20.1-3.7-20.5h1.4c0,0,1.4,0,1.4,0l3.6,1.2c11.9,5.7,23.2,15,34.6,28.4-6.7,8.4-10.6,14.7-12.2,17.4l4.5,5,3.8-2.5c.2-.4,21.8-35,51.5-49.1l4.4.3c0,0,3.1,3.3-4,20.2-.2.4-4.5,10.8-3.1,26.4v41.5c0,.3.6,28.1-22.3,41.9l-15.3,9.5s-2,1-3.4,0h0Z"/>
  </g>
  <g>
    <circle class="cls-5" cx="377.1" cy="568.8" r="6.2"/>
    <circle class="cls-5" cx="988.9" cy="568.8" r="6.2"/>
    <g class="cls-3">
      <text class="cls-1" transform="translate(411.3 580.4)"><tspan x="0" y="0">ORGANIC SKINCARE</tspan></text>
    </g>
  </g>
</svg>