<?xml version="1.0" encoding="UTF-8"?>
<svg id="Layer_1" data-name="Layer 1" xmlns="http://www.w3.org/2000/svg" version="1.1" viewBox="0 0 1366 220">
  <defs>
    <style>
      .cls-1 {
        fill: #9d845e;
      }

      .cls-1, .cls-2 {
        stroke-width: 0px;
      }

      .cls-2 {
        fill: #f7acbb;
      }

      .cls-3 {
        isolation: isolate;
      }
    </style>
  </defs>
  <g class="cls-3">
    <g class="cls-3">
      <g class="cls-3">
        <path class="cls-1" d="M418.4,70.1c-3.6,0-6.4.8-8.6,2.4-2.2,1.7-3.3,3.9-3.3,6.7v85.9c0,2.9,1.1,5.3,3.3,7s5.1,2.4,8.6,2.4v2.3h-39.6v-2.3c3.5,0,6.2-.8,8.4-2.4,2.2-1.7,3.3-3.9,3.3-6.7v-90.9l-45.1,92.5h-7.7l-42.1-84v82.5c0,2.8,1.1,5.2,3.3,6.7,2.2,1.7,4.9,2.4,8.4,2.4v2.3h-27.3v-2.3c3.5,0,6.2-.8,8.4-2.4,2.2-1.7,3.3-4,3.3-7v-85.9c0-2.8-1.1-5.2-3.3-6.7-2.2-1.7-4.9-2.4-8.4-2.4v-2.3h26.1l42.1,86,42.3-86h27.9v2.3h-.1Z"/>
        <path class="cls-1" d="M504.1,164.4c0,2.8,1.1,5.2,3.3,6.7s4.9,2.4,8.4,2.4v2.3h-18.7c-2.5,0-4.6-.7-6.3-2.1-1.7-1.5-2.5-3.2-2.5-5.3v-5.3c-3.8,5.1-8.4,8.7-13.9,11-5.5,2.2-11,3.4-16.5,3.4s-7.9-.5-11.7-1.7c-3.8-1.1-7.3-2.6-10.2-4.7-2.9-2-5.4-4.5-7.4-7.4-1.9-2.9-3.1-6.1-3.5-9.7-.3-4,.4-7.5,2.1-10.6s3.9-5.9,6.7-8.2c2.8-2.3,6.2-4.4,10-6.2s7.8-3.3,11.9-4.4c9.4-2.7,20.2-4.6,32.4-5.6v-2.6c0-2.2-.4-4.4-1.3-6.7-.8-2.3-2.2-4.4-4-6.2-1.8-1.9-4-3.4-6.7-4.6-2.7-1.2-5.8-1.8-9.4-1.8s-9.4.6-13,2-6.6,3.2-9,5.5-4,5.2-5.2,8.4-1.7,6.8-1.7,10.8h-3.2l-4.9-14c-.1-.2,0-.5.2-.9.5-.5,1.7-1.6,3.5-3.2,1.8-1.6,4.2-3.1,7.3-4.7,3.1-1.6,6.7-2.9,11-4.2,4.3-1.2,9.3-1.8,15-1.8s10.6.4,15.3,1.2,8.5,2.1,11.8,4,5.8,4.3,7.6,7.5c1.9,3.2,2.7,7.1,2.7,11.8v45.2h-.1ZM488,122.2c0-.7-.4-1.2-1.4-1.2-1.4.1-3.4.3-6.1.7-2.7.4-5.8.9-9.2,1.8-3.4.8-6.8,2-10.5,3.5-3.6,1.5-6.8,3.4-9.8,5.7s-5.3,5.2-7.3,8.5c-1.9,3.4-2.8,7.3-2.8,11.8s1.8,10.5,5.4,13.5c3.6,2.9,7.8,4.6,12.6,5.2,4.6.4,8.6.2,12.1-.8,3.5-.9,6.3-2.2,8.7-3.6,2.4-1.5,4.2-2.8,5.6-4.3,1.4-1.5,2.2-2.3,2.5-2.8.1-.2.2-.4.2-.6v-37.3h-.1Z"/>
        <path class="cls-1" d="M586.4,166.7c7.5,0,13.3,1.5,17.1,4.3,3.9,2.8,5.8,6.7,5.8,11.7s-.9,6.3-2.7,9.3c-1.9,3.1-4.5,5.7-8.1,8.1-3.6,2.3-7.9,4.3-12.8,5.8-5.1,1.5-10.6,2.2-17.1,2.2s-9.5-.3-13.3-.9c-3.8-.6-7.2-1.5-10.1-2.5s-5.4-2.2-7.3-3.6c-2-1.4-3.7-2.7-5.2-4.2-3.2-3.3-5.1-7.1-5.7-11.4l10.3-3.6c-.3,4.5.6,8.5,2.7,12.2.9,1.6,2.1,3.1,3.6,4.4,1.5,1.5,3.4,2.7,5.7,3.9,2.3,1.2,5.1,2.1,8.2,2.8s6.8,1.1,11.1,1.1,10.1-.5,14.1-1.7c4-1.1,7.4-2.5,10-4.3,2.6-1.8,4.6-3.8,5.9-6,1.4-2.2,2-4.4,2-6.6s-1.2-4.9-3.6-6c-2.4-1.1-5.3-1.6-8.7-1.6h-39.4c-5.1,0-9.1-.5-12.2-1.6-3.1-1.1-5.3-2.3-6.6-3.9-2.5-2.7-3.2-6-2.1-9.8,1.2-3.8,4-8,8.6-12.6-4.1-3.1-7.3-6.6-9.6-10.7-2.3-4.1-3.5-8.4-3.5-13.1s1.2-9,3.4-13c2.2-4,5.3-7.5,9.1-10.4s8.3-5.4,13.5-7.1c5.2-1.8,10.6-2.6,16.4-2.6s14.1,1.4,20.2,4l20.5-7.4v8.4h-18.2c5.9,2.9,10.7,7,14.3,11.9,3.6,4.9,5.5,10.4,5.5,16.3s-1.2,9-3.4,13c-2.2,4-5.3,7.5-9.1,10.4-3.8,2.9-8.3,5.3-13.5,7.1-5.2,1.7-10.6,2.5-16.4,2.5s-10.5-.7-15.2-2.1c-4.5-1.4-8.6-3.4-12.2-5.9-1.1,1.3-1.8,2.6-2.3,4.1-.4,1.6-.3,2.9.3,4.3s1.9,2.5,3.9,3.5c1.9.9,4.6,1.4,8.2,1.4h37.8ZM565.9,96.7c-3.5,0-6.6.8-9.6,2.4-2.9,1.7-5.6,3.9-7.8,6.6-2.2,2.8-4,6.1-5.4,9.9s-2,7.8-2,12.1.6,8.3,2,12.1c1.4,3.8,3.1,7.1,5.4,9.9,2.2,2.8,4.8,5.1,7.8,6.6,2.9,1.7,6.2,2.4,9.6,2.4s6.6-.8,9.6-2.4c2.9-1.7,5.6-3.9,7.8-6.6,2.2-2.8,4-6.1,5.4-9.9,1.4-3.8,2-7.8,2-12.1s-.6-8.3-2-12.1c-1.4-3.8-3.1-7.1-5.4-9.9-2.2-2.8-4.8-5.1-7.8-6.6-2.9-1.7-6.2-2.4-9.6-2.4Z"/>
        <path class="cls-1" d="M645.1,164.4c0,2.8,1.1,5.2,3.3,6.7,2.2,1.7,4.9,2.4,8.4,2.4v2.3h-39.4v-2.3c3.5,0,6.2-.8,8.4-2.4,2.2-1.7,3.3-3.9,3.3-6.7v-55.4c0-1.4-.5-2.4-1.7-3.3-1.2-.8-3.1-1.1-5.8-.5-.4,0-1.3.1-2.5.3-.4.1-.8.2-1.4.3v-2.8l27.5-6.1v67.4h-.1ZM637.2,81.1c-2.1,0-4.1-.7-6.1-2.1-1.7-1.7-2.5-3.4-2.5-5.2s.8-3.7,2.6-5.1,3.8-2.1,6-2.1,4.3.7,5.9,2.1c1.7,1.4,2.5,2.9,2.5,4.9s-.8,3.8-2.5,5.2c-1.7,1.5-3.7,2.1-5.9,2.1h0Z"/>
        <path class="cls-1" d="M749.6,150.7c-1.6,3.9-3.7,7.4-6.2,10.7-2.5,3.3-5.6,6.1-9,8.5-3.5,2.4-7.3,4.3-11.6,5.7-4.3,1.4-9,2.1-14.1,2.1s-13.4-1.1-18.9-3.3-10.1-5.2-13.8-9c-3.8-3.7-6.6-8.1-8.6-13.1s-2.9-10.3-2.9-15.9c0-11.3,3.4-20.6,10.1-28,6.7-7.4,16.1-11.8,28.1-13.4,5.7-.7,11-.7,15.8.2,4.8.9,9.1,2.2,12.6,3.7,4.2,1.7,8,3.7,11.5,6.1v15l-2.5.2c-.5-2.6-1.9-5.4-4-8.1-2.1-2.8-4.6-5.3-7.7-7.5-3.1-2.2-6.3-4-10-5.5-3.6-1.5-7.2-2.1-10.5-2.1s-3.2.2-4.7.5c-7.3,1.8-12.7,6-16.3,12.7-3.6,6.7-5.5,15.5-5.5,26.3s.8,10,2.4,14,3.7,7.3,6.3,9.9,5.8,4.6,9.5,5.9c3.7,1.3,7.6,1.9,11.7,1.9,7.2,0,13.8-1.5,20.1-4.3,6.2-2.8,11.3-7.5,15.2-13.8l3.4.5-.3-.2Z"/>
        <path class="cls-1" d="M904.3,67.8v2.3c-3.5,0-6.2.8-8.4,2.4-2.2,1.7-3.3,4-3.3,7v97.4h-4l-86.5-97.9v86.4c0,2.8,1.1,5.2,3.3,6.7,2.2,1.7,4.9,2.4,8.4,2.4v2.3h-27.3v-2.3c3.5,0,6.2-.8,8.4-2.4,2.2-1.7,3.3-4,3.3-7v-85.9c0-2.8-1.1-5.2-3.3-6.7-2.2-1.7-4.9-2.4-8.4-2.4v-2.3h27.3l74.8,81.7v-70.2c0-2.8-1.1-5.2-3.3-6.7-2.2-1.7-4.9-2.4-8.4-2.4v-2.3h27.4Z"/>
        <path class="cls-1" d="M989.7,164.4c0,2.8,1.1,5.2,3.3,6.7,2.2,1.7,4.9,2.4,8.4,2.4v2.3h-18.7c-2.5,0-4.6-.7-6.3-2.1-1.7-1.5-2.5-3.2-2.5-5.3v-5.3c-3.8,5.1-8.4,8.7-13.9,11-5.5,2.2-11,3.4-16.5,3.4s-7.9-.5-11.7-1.7c-3.8-1.1-7.3-2.6-10.2-4.7-2.9-2-5.4-4.5-7.4-7.4-1.9-2.9-3.1-6.1-3.5-9.7-.3-4,.4-7.5,2.1-10.6,1.7-3.2,3.9-5.9,6.7-8.2s6.2-4.4,10-6.2,7.8-3.3,11.9-4.4c9.4-2.7,20.2-4.6,32.4-5.6v-2.6c0-2.2-.4-4.4-1.3-6.7-.8-2.3-2.2-4.4-4-6.2-1.8-1.9-4-3.4-6.7-4.6-2.7-1.2-5.8-1.8-9.4-1.8s-9.4.6-13,2c-3.6,1.4-6.6,3.2-9,5.5s-4,5.2-5.2,8.4c-1.2,3.3-1.7,6.8-1.7,10.8h-3.2l-4.9-14c-.1-.2,0-.5.2-.9.5-.5,1.7-1.6,3.5-3.2s4.2-3.1,7.3-4.7c3.1-1.6,6.7-2.9,11-4.2,4.3-1.2,9.3-1.8,15-1.8s10.6.4,15.3,1.2,8.5,2.1,11.8,4c3.3,1.9,5.8,4.3,7.6,7.5,1.9,3.2,2.7,7.1,2.7,11.8v45.2h-.1ZM973.7,122.2c0-.7-.4-1.2-1.4-1.2-1.4.1-3.4.3-6.1.7-2.7.4-5.8.9-9.2,1.8-3.4.8-6.8,2-10.5,3.5-3.6,1.5-6.8,3.4-9.8,5.7s-5.3,5.2-7.3,8.5c-1.9,3.4-2.8,7.3-2.8,11.8s1.8,10.5,5.4,13.5c3.6,2.9,7.8,4.6,12.6,5.2,4.6.4,8.6.2,12.1-.8,3.5-.9,6.3-2.2,8.7-3.6,2.4-1.5,4.2-2.8,5.6-4.3,1.4-1.5,2.2-2.3,2.5-2.8.1-.2.2-.4.2-.6v-37.3h-.1Z"/>
        <path class="cls-1" d="M1047.9,174.1c-3.1,1.3-6.3,2.1-9.8,2.5-3.5.5-6.8.5-10,.2-4.8-.5-8.6-2.2-11.4-4.8-2.7-2.7-4.1-6.4-4.1-11.3v-61.5h-11.3v-2.3h2c4.2,0,7.8-.9,10.8-2.7,3.1-1.8,5.5-3.8,7.4-6,2.1-2.5,3.9-5.5,5.4-8.7h2.5v17.5h16.9v2.3h-16.9v61.2c0,3.7,1.4,6.6,4,8.8,2.6,2.1,5.7,3.3,9.1,3.3s3.1-.3,4.7-.8l.6,2.4h0Z"/>
        <path class="cls-1" d="M1135.2,164.5c.1,2.8,1.3,5.2,3.4,6.7,2.1,1.7,4.9,2.4,8.5,2.4v2.3h-17.1c-2.2,0-4.2-.5-5.9-1.6s-3.1-2.3-4-3.9c-.4.1-1.5.5-3.4,1.4-1.9.7-4.1,1.6-6.6,2.4s-5.3,1.7-8.2,2.3c-2.9.6-5.7.9-8.3.9-4.2,0-8.2-.6-12-2-3.8-1.4-7.1-3.2-9.8-5.5-2.7-2.3-4.9-5.1-6.5-8.1s-2.4-6.4-2.4-10v-43.1c0-1.4-.5-2.4-1.7-3.4-1.2-.9-3.1-1.2-5.8-.5-.4.1-1.3.3-2.5.5-.4.1-.8.2-1.4.3v-2.8l27.5-6.2v54.2c0,2.3.5,4.5,1.6,6.6s2.5,3.9,4.4,5.5c1.9,1.6,4.1,2.8,6.6,3.7s5.2,1.4,7.9,1.4h19.8v-.3l-.2-.8v-58c0-1.4-.5-2.4-1.7-3.4-1.2-.9-3.1-1.2-5.8-.5-.4.1-1.3.3-2.5.5-.4.1-.8.2-1.4.3v-2.8l27.5-6.2v67.6h0Z"/>
        <path class="cls-1" d="M1180,106.4c2.2-4,5.1-6.7,8.3-8.5,3.3-1.7,6.8-2.5,10.6-2.5s9.8,1.2,14.8,3.6l-4.3,10.5c-3.1-2.1-5.8-3.6-8.4-4.3-2.5-.8-4.9-1.3-7.3-1.3-3.6,0-6.5.7-9,2.2s-4,2.8-4.9,4v54.2c0,2.8,1.1,5.2,3.3,6.7,2.2,1.7,4.9,2.4,8.4,2.4v2.3h-39.4v-2.3c3.5,0,6.2-.8,8.4-2.4s3.3-3.9,3.3-6.7v-55.4c0-1.4-.5-2.4-1.7-3.3-1.2-.8-3.1-1.1-5.8-.5-.4,0-1.3.1-2.5.3-.4.1-.8.2-1.4.3v-2.8l27.5-6.1v9.6Z"/>
        <path class="cls-1" d="M1295.1,164.4c0,2.8,1.1,5.2,3.3,6.7,2.2,1.7,4.9,2.4,8.4,2.4v2.3h-18.7c-2.5,0-4.6-.7-6.3-2.1-1.7-1.5-2.5-3.2-2.5-5.3v-5.3c-3.8,5.1-8.4,8.7-13.9,11-5.5,2.2-11,3.4-16.5,3.4s-7.9-.5-11.7-1.7c-3.8-1.1-7.3-2.6-10.2-4.7-2.9-2-5.4-4.5-7.4-7.4-1.9-2.9-3.1-6.1-3.5-9.7-.3-4,.4-7.5,2.1-10.6s3.9-5.9,6.7-8.2c2.8-2.3,6.2-4.4,10-6.2s7.8-3.3,11.9-4.4c9.4-2.7,20.2-4.6,32.4-5.6v-2.6c0-2.2-.4-4.4-1.3-6.7-.8-2.3-2.2-4.4-4-6.2-1.8-1.9-4-3.4-6.7-4.6-2.7-1.2-5.8-1.8-9.4-1.8s-9.4.6-13,2-6.6,3.2-9,5.5c-2.3,2.3-4,5.2-5.2,8.4s-1.7,6.8-1.7,10.8h-3.2l-4.9-14c-.1-.2,0-.5.2-.9.5-.5,1.7-1.6,3.5-3.2,1.8-1.6,4.2-3.1,7.3-4.7,3.1-1.6,6.7-2.9,11-4.2,4.3-1.2,9.3-1.8,15-1.8s10.6.4,15.3,1.2,8.5,2.1,11.8,4,5.8,4.3,7.6,7.5c1.9,3.2,2.7,7.1,2.7,11.8v45.2h-.1ZM1279.1,122.2c0-.7-.4-1.2-1.4-1.2-1.4.1-3.4.3-6.1.7-2.7.4-5.8.9-9.2,1.8-3.4.8-6.8,2-10.5,3.5-3.6,1.5-6.8,3.4-9.8,5.7-2.9,2.3-5.3,5.2-7.3,8.5-1.9,3.4-2.8,7.3-2.8,11.8s1.8,10.5,5.4,13.5,7.8,4.6,12.6,5.2c4.6.4,8.6.2,12.1-.8,3.5-.9,6.3-2.2,8.7-3.6,2.4-1.5,4.2-2.8,5.6-4.3,1.4-1.5,2.2-2.3,2.5-2.8.1-.2.2-.4.2-.6v-37.3h-.1Z"/>
        <path class="cls-1" d="M1339.1,164.4c0,2.8,1.1,5.2,3.3,6.7s4.9,2.4,8.4,2.4v2.3h-39.4v-2.3c3.5,0,6.2-.8,8.4-2.4s3.3-3.9,3.3-6.7v-85.4c0-1.4-.5-2.4-1.7-3.4-1.2-.9-3.1-1.2-5.8-.5-.4.1-1.3.3-2.5.5-.4.1-.8.2-1.4.3v-2.8l27.5-6.2v97.6h-.1Z"/>
      </g>
    </g>
  </g>
  <g>
    <path class="cls-2" d="M129.6,53.1h0c11.3,0,20.5-9.2,20.5-20.5s-9.3-20.6-20.5-20.6-20.6,9.2-20.6,20.5,9.3,20.6,20.6,20.6ZM129.6,18.1c7.9,0,14.2,6.4,14.2,14.2s-6.4,14.2-14.2,14.2-14.2-6.4-14.2-14.2,6.4-14.2,14.2-14.2Z"/>
    <path class="cls-2" d="M239,106.2c-9.9-22.2-57.9-9.6-63.4-8l-2.9,2.4,2.9,4.8c15-4.2,49.9-10.6,56.8,2.8-.2.6-2.5,6.4-23.1,11.3-.7.2-11.1,4.1-15.7,20.9,0,0-8.5,25.8-27.3,33.7-7.2,3.2-15.1,3.1-23.6,0l3.2-2c22.7-13.7,22.2-40.4,22.2-41.4v-35.2c-1.1-11.7,1.9-19.2,2-19.3,5.5-13,6-20.7,1.9-24.9-4.7-4.5-12.5-1.1-13.5-.6-12.2,5.8-22.7,15.9-30.6,24.9-9.9-11.6-20-19.7-30.6-24.9-.8-.4-8.7-4-13.6.6-4.2,4-3.6,12,1.9,24.9,0,0,3.2,7.4,2,19.6v34.8c0,1.1-.6,27.8,22.1,41.4l2.8,1.8c-8.7,3.3-17,3.5-24.3.3-18.7-7.9-27.3-33.7-27.3-33.7-4.5-16.7-15-20.5-15.7-20.9-20.5-4.8-22.6-10.7-23.1-11.3,7-13.5,41.9-7.1,56.8-2.8l2.9-4.8-2.9-2.4c-5.5-1.5-53.6-14.2-63.4,8l-.3,1.1,1.5,5.4c3.4,5.7,12.5,10.4,26.5,13.8.2.2,7.4,3.2,11.1,16.2.3,1.2,9.6,29.1,31.2,38.3,4.5,1.9,9.2,2.8,14.1,2.8h0c6,0,12.3-1.6,20.1-5.2l4.6,2.8,3.2.3h0c2.1,0,4-.6,5.3-1.4l2.5-1.6c7.5,3.4,13.7,4.7,19.5,4.7h0c4.8,0,9.6-.9,14.1-2.8,21.6-9.2,30.8-37.1,31.2-38.3,3.6-13.1,10.8-16,11.1-16.2,14-3.4,23.2-8.1,26.5-13.8l1.5-5.4-.3-1.1h-.2.2l.2.2ZM126.7,174.4l-13.2-8.2c-19.3-11.6-18.9-35-18.9-35.4v-34.5c1.3-13.6-2.4-22.2-2.6-22.6-6-14.2-3.5-17-3.2-17.3h2.3l3.1,1.1c10,4.8,19.6,12.6,29.2,24-5.7,7.1-9,12.4-10.3,14.6l3.8,4.2,3.2-2.1c.2-.3,18.4-29.5,43.5-41.4l3.7.2s2.6,2.7-3.4,17.1c-.2.3-3.8,9.2-2.6,22.2v35c0,.2.5,23.7-18.9,35.4l-13,8s-1.7.8-2.8,0h0l-.2-.2h.3Z"/>
  </g>
</svg>